<?xml version="1.0" standalone="no"?>
<!DOCTYPE svg PUBLIC "-//W3C//DTD SVG 20010904//EN"
 "http://www.w3.org/TR/2001/REC-SVG-20010904/DTD/svg10.dtd">
<svg version="1.0" xmlns="http://www.w3.org/2000/svg"
 width="500.000000pt" height="500.000000pt" viewBox="0 0 500.000000 500.000000"
 preserveAspectRatio="xMidYMid meet">
<metadata>
Created by potrace 1.16, written by Peter Selinger 2001-2019
</metadata>
<g transform="translate(0.000000,500.000000) scale(0.100000,-0.100000)"
fill="#000000" stroke="none">
<path d="M1555 3991 c-338 -62 -636 -227 -854 -473 -188 -212 -299 -426 -363
-697 -31 -136 -36 -420 -10 -576 36 -210 116 -411 233 -590 74 -112 288 -324
409 -404 174 -116 355 -191 570 -237 119 -26 427 -26 554 0 111 22 303 84 382
124 l59 30 65 -33 c82 -41 259 -98 370 -120 47 -9 141 -19 210 -22 742 -34
1387 464 1552 1198 20 91 23 130 23 309 -1 173 -4 221 -23 307 -101 466 -404
853 -829 1059 -204 98 -410 144 -651 144 -233 0 -396 -33 -604 -122 l-118 -49
-97 44 c-199 90 -330 118 -583 123 -158 3 -214 0 -295 -15z m605 -109 c63 -16
152 -45 198 -64 l83 -34 -48 -34 c-95 -67 -170 -134 -256 -228 -153 -169 -253
-339 -321 -542 -54 -164 -67 -238 -73 -430 -5 -150 -2 -193 16 -299 51 -300
181 -564 379 -773 85 -88 188 -178 265 -230 l38 -26 -56 -26 c-73 -33 -191
-70 -296 -93 -118 -25 -429 -25 -547 1 -593 128 -1032 584 -1127 1171 -19 118
-19 348 0 461 35 205 125 423 242 587 84 118 251 281 362 356 194 129 341 186
611 235 14 2 113 3 220 1 179 -2 205 -5 310 -33z m1385 13 c564 -127 989 -560
1102 -1124 25 -125 25 -424 -1 -546 -125 -597 -590 -1039 -1191 -1131 -121
-19 -373 -14 -480 9 -89 20 -225 63 -293 93 l-54 24 80 59 c311 231 510 538
594 918 31 143 32 453 0 599 -45 209 -123 394 -233 555 -81 118 -239 283 -351
367 l-89 66 51 23 c81 36 228 80 310 93 41 6 82 13 90 15 42 10 401 -5 465
-20z m-942 -207 c385 -258 613 -665 634 -1129 23 -514 -229 -987 -677 -1272
-25 -16 -28 -15 -98 32 -311 206 -522 517 -603 886 -26 119 -36 352 -19 480
43 342 232 687 497 907 81 67 182 138 196 138 4 0 36 -19 70 -42z"/>
<path d="M2753 3398 c-12 -13 -46 -72 -77 -132 l-56 -109 0 -303 0 -303 23
-27 c20 -23 34 -28 85 -32 l62 -4 0 -34 c0 -33 -1 -34 -43 -34 -24 0 -48 -5
-55 -12 -9 -9 -12 -105 -12 -370 0 -305 2 -364 15 -389 29 -55 113 -67 164
-23 l31 26 0 378 c0 242 -4 381 -10 385 -6 4 -10 172 -10 471 0 389 -2 470
-15 493 -24 47 -69 55 -102 19z m37 -464 l0 -365 -42 3 -43 3 -3 275 -3 275
43 88 c23 48 43 87 45 87 2 0 3 -165 3 -366z m20 -925 l0 -330 -22 3 -23 3 -3
328 -2 327 25 0 25 0 0 -331z"/>
<path d="M2088 3209 c-16 -9 -18 -31 -18 -242 0 -223 1 -234 24 -283 26 -55
62 -87 116 -101 l35 -9 3 -77 c3 -76 3 -77 -22 -77 -15 0 -30 -8 -36 -19 -6
-13 -10 -148 -10 -371 0 -382 2 -400 56 -420 62 -24 125 -5 149 45 23 50 23
726 -1 749 -8 9 -24 16 -35 16 -17 0 -19 8 -19 80 0 75 1 80 22 80 42 0 105
47 130 97 22 46 23 60 26 283 3 214 2 236 -14 247 -23 17 -29 16 -48 -3 -14
-13 -16 -48 -16 -227 0 -186 -3 -217 -19 -254 -11 -23 -28 -46 -39 -52 -32
-17 -144 -14 -170 5 -43 30 -47 49 -52 288 -5 215 -6 229 -25 242 -14 9 -25
10 -37 3z m222 -1200 l0 -330 -22 3 -23 3 -3 315 c-1 173 0 320 3 327 2 7 14
13 25 13 20 0 20 -5 20 -331z"/>
<path d="M2206 3204 c-13 -12 -16 -40 -16 -139 0 -115 1 -125 22 -139 15 -11
26 -12 40 -5 16 9 18 24 18 144 0 123 -2 135 -19 145 -25 13 -27 13 -45 -6z"/>
<path d="M2316 3198 c-12 -17 -16 -49 -16 -135 0 -101 2 -115 21 -134 18 -18
23 -19 42 -6 20 13 22 24 25 140 2 104 0 128 -13 141 -22 22 -41 20 -59 -6z"/>
</g>
</svg>
